<svg width="1648" height="242" viewBox="0 0 1648 242" fill="none" xmlns="http://www.w3.org/2000/svg">
<g clip-path="url(#clip0_311_9)">
<path d="M213.748 8.35417C213.748 3.9359 217.329 0.35418 221.748 0.35418H285.084C289.502 0.35418 293.084 3.9359 293.084 8.35418V92.4101C293.084 96.8283 289.502 100.41 285.084 100.41H273.25C260.263 100.41 250.7 99.0524 244.561 96.337C238.422 93.5035 233.582 90.375 230.04 86.9512C226.616 83.4094 223.665 78.8051 221.185 73.1382C216.227 61.5683 213.748 45.5121 213.748 24.9697V8.35417ZM99.1704 8.35418C99.1704 3.9359 102.752 0.35418 107.17 0.35418H186.445C190.863 0.35418 194.445 3.9359 194.445 8.35418V233.374C194.445 237.792 190.863 241.374 186.445 241.374H107.17C102.752 241.374 99.1704 237.792 99.1704 233.374V8.35418ZM0 8.35418C0 3.9359 3.58172 0.35418 8 0.35418H71.3363C75.7546 0.35418 79.3363 3.9359 79.3363 8.35418V24.9697C79.3363 55.3111 73.8466 75.9716 62.867 86.9512C53.8944 95.9238 39.5501 100.41 19.8341 100.41H8C3.58172 100.41 0 96.8283 0 92.4101V8.35418Z" fill="#2A234D"/>
<path d="M464.684 8.35418C464.684 3.9359 468.266 0.35418 472.684 0.35418H480.622C524.068 0.35418 549.983 15.0527 558.365 44.4496C561.198 54.1305 562.615 65.2282 562.615 77.7425V233.374C562.615 237.792 559.033 241.374 554.615 241.374H472.684C468.266 241.374 464.684 237.792 464.684 233.374V8.35418ZM333.992 77.7425C333.992 51.6513 339.954 32.5255 351.878 20.3654C364.983 7.02457 386.352 0.35418 415.985 0.35418H423.923C428.341 0.35418 431.923 3.9359 431.923 8.35418V233.374C431.923 237.792 428.341 241.374 423.923 241.374H341.992C337.574 241.374 333.992 237.792 333.992 233.374V77.7425Z" fill="#2A234D"/>
<path d="M830.906 75.2633C830.906 102.528 821.793 122.648 803.567 135.622C797.492 139.946 797.417 151.331 803.508 155.633C811.716 161.431 818.429 168.642 823.646 177.267C831.32 190.254 835.157 205.365 835.157 222.602V233.374C835.157 237.792 831.575 241.374 827.157 241.374H737.611C733.193 241.374 729.611 237.792 729.611 233.374V8C729.611 3.58173 733.193 0 737.611 0H738.82C769.988 0 792.95 5.903 807.708 17.709C823.174 30.1053 830.906 49.2901 830.906 75.2633ZM604.94 8.35418C604.94 3.9359 608.521 0.35418 612.94 0.35418H692.214C696.632 0.35418 700.214 3.9359 700.214 8.35418V233.374C700.214 237.792 696.632 241.374 692.214 241.374H612.94C608.521 241.374 604.94 237.792 604.94 233.374V8.35418Z" fill="#2A234D"/>
<path d="M875.179 8.35418C875.179 3.9359 878.761 0.35418 883.179 0.35418H962.453C966.872 0.35418 970.453 3.9359 970.453 8.35418V233.02C970.453 237.438 966.872 241.02 962.453 241.02H883.179C878.761 241.02 875.179 237.438 875.179 233.02V8.35418ZM999.851 65.8775C999.851 39.7862 1006.46 22.2543 1019.68 13.2818C1032.2 4.89949 1055.75 0.70836 1090.34 0.70836H1100.23C1104.65 0.70836 1108.23 4.29008 1108.23 8.70836V34.1784C1108.23 60.86 1101.44 79.8676 1087.86 91.2014C1074.05 102.535 1050.26 108.202 1016.5 108.202H1007.85C1003.43 108.202 999.851 104.62 999.851 100.202V65.8775ZM999.851 134.619C999.851 130.201 1003.43 126.619 1007.85 126.619H1016.5C1049.79 126.619 1073.58 133.231 1087.86 146.453C1101.44 159.086 1108.23 179.038 1108.23 206.31V233.374C1108.23 237.792 1104.65 241.374 1100.23 241.374H1090.34C1056.46 241.374 1032.91 236.297 1019.68 226.144C1006.46 215.873 999.851 197.455 999.851 170.892V134.619Z" fill="#2A234D"/>
<path d="M1277.7 8.17709C1277.7 3.75881 1281.29 0.17709 1285.7 0.17709H1368.17C1372.59 0.17709 1376.17 3.75881 1376.17 8.17709V233.374C1376.17 237.792 1372.59 241.374 1368.17 241.374H1285.7C1281.29 241.374 1277.7 237.792 1277.7 233.374V8.17709ZM1150.55 8.1771C1150.55 3.75883 1154.14 0.17709 1158.55 0.17709H1240.48C1244.9 0.17709 1248.48 3.75881 1248.48 8.17709V233.374C1248.48 237.792 1244.9 241.374 1240.48 241.374H1232.55C1189.1 241.374 1163.19 226.616 1154.8 197.101C1151.97 187.538 1150.55 176.5 1150.55 163.985V8.1771Z" fill="#2A234D"/>
<path d="M1550.76 13.7083C1546.13 8.56084 1549.78 0.35418 1556.71 0.35418H1640C1644.42 0.35418 1648 3.9359 1648 8.35418V100.826C1648 108.156 1638.96 111.626 1634.06 106.18L1550.76 13.7083ZM1423.31 71.798C1423.18 71.637 1422.97 71.5444 1422.76 71.5444C1422.36 71.5444 1422.03 71.2143 1422.04 70.8121C1422.17 46.8635 1428.78 29.1625 1441.87 17.709C1454.48 6.67541 1473.58 0.902897 1499.18 0.391467C1501.57 0.343736 1503.84 1.4226 1505.36 3.267L1646.17 174.166C1647.35 175.598 1648.01 177.401 1647.97 179.257C1647.46 201.132 1641.16 216.879 1629.05 226.498C1617.32 235.86 1598.48 240.75 1572.52 241.167C1570.19 241.205 1567.97 240.179 1566.45 238.41L1423.31 71.798ZM1422.56 140.89C1422.56 133.474 1431.78 130.05 1436.62 135.666L1516.36 228.15C1520.83 233.335 1517.14 241.374 1510.3 241.374H1430.56C1426.15 241.374 1422.56 237.792 1422.56 233.374V140.89Z" fill="#2A234D"/>
</g>
<defs>
<clipPath id="clip0_311_9">
<rect width="1648" height="241.374" fill="white"/>
</clipPath>
</defs>
</svg>
