<svg width="38" height="40" viewBox="0 0 38 40" fill="none" xmlns="http://www.w3.org/2000/svg">
<path d="M38 22.6C38 25 37.6 27.2 36.6 29.4C35.6 31.6 34.2 33.4 32.4 35.2C30.6 36.8 28.6 38.2 26.2 39C25.2 39.4 24 39.8 22.8 40L23.4 39.8C23.4 39.8 27.8 37.2 28.8 31.6C29.2 26.6 25 24.4 25 24.4C25 24.4 22.8 27.2 19.8 27.2C15 27.2 15.8 19.2 15.8 19.2C15.8 19.2 8.6 23 8.6 31C8.6 36 13.8 39.8 13.8 39.8C13.2 39.6 12.4 39.4 11.8 39.2C9.4 38.4 7.4 37 5.6 35.4C3.8 33.8 2.4 31.8 1.4 29.6C0.4 27.4 0 25.2 0 22.8C0 15 9.2 7.4 9.2 7.4C9.2 7.4 10 13.4 14.6 13.4C23 13.4 20 0 20 0C20 0 27.6 4.4 29.8 16.4C34 15.8 33.6 10.4 33.6 10.4C33.6 10.4 38 16.2 38 22.6Z" fill="white"/>
</svg>
